<svg xmlns="http://www.w3.org/2000/svg" width="768" height="128" viewBox="0 0 768 128">
<defs>
  <linearGradient id="red" x1="0" y1="0" x2="0" y2="1"><stop offset="0" stop-color="#ff5268"/><stop offset=".48" stop-color="#d91e39"/><stop offset="1" stop-color="#8f1025"/></linearGradient>
  <linearGradient id="gold" x1="0" y1="0" x2="0" y2="1"><stop offset="0" stop-color="#ffe57a"/><stop offset=".46" stop-color="#e7ad1d"/><stop offset="1" stop-color="#9a6509"/></linearGradient>
  <linearGradient id="blue" x1="0" y1="0" x2="0" y2="1"><stop offset="0" stop-color="#60baff"/><stop offset=".5" stop-color="#247ccc"/><stop offset="1" stop-color="#145092"/></linearGradient>
  <linearGradient id="green" x1="0" y1="0" x2="0" y2="1"><stop offset="0" stop-color="#67dc93"/><stop offset=".5" stop-color="#2c9b60"/><stop offset="1" stop-color="#176441"/></linearGradient>
  <linearGradient id="plum" x1="0" y1="0" x2="1" y2="1"><stop offset="0" stop-color="#51344d"/><stop offset=".5" stop-color="#261f2a"/><stop offset="1" stop-color="#120f16"/></linearGradient>
  <radialGradient id="shine" cx="38%" cy="28%" r="68%"><stop offset="0" stop-color="#fff" stop-opacity=".95"/><stop offset=".25" stop-color="#fff" stop-opacity=".28"/><stop offset="1" stop-color="#fff" stop-opacity="0"/></radialGradient>
</defs>

<!-- 7 -->
<g transform="translate(0 0)">
  <path d="M24 27 Q24 18 34 18 H105 Q113 18 110 27 L72 106 Q69 113 60 113 H43 L78 41 H31 Q24 41 24 34Z" fill="url(#red)" stroke="#65101f" stroke-width="4"/>
  <path d="M31 26 H102 L94 38 H35Z" fill="#ffd77c" opacity=".9"/>
  <path d="M79 42 L51 103" stroke="#ffd77c" stroke-width="5" stroke-linecap="round" opacity=".75"/>
  <path d="M36 24 H95" stroke="#fff" stroke-width="3" stroke-linecap="round" opacity=".65"/>
</g>

<!-- cherry -->
<g transform="translate(128 0)">
  <path d="M58 57 C61 42 69 28 83 20 M66 53 C78 38 87 31 99 29" fill="none" stroke="#286c3f" stroke-width="7" stroke-linecap="round"/>
  <path d="M82 21 C91 13 108 14 115 24 C104 32 90 33 80 27Z" fill="url(#green)" stroke="#17613a" stroke-width="3"/>
  <circle cx="47" cy="78" r="27" fill="url(#red)" stroke="#8f1227" stroke-width="4"/>
  <circle cx="88" cy="77" r="27" fill="url(#red)" stroke="#8f1227" stroke-width="4"/>
  <ellipse cx="38" cy="68" rx="9" ry="7" fill="url(#shine)"/>
  <ellipse cx="79" cy="67" rx="9" ry="7" fill="url(#shine)"/>
</g>

<!-- bell -->
<g transform="translate(256 0)">
  <path d="M31 85 Q34 52 50 34 Q57 26 64 26 Q71 26 78 34 Q94 52 97 85 Q92 96 64 97 Q36 96 31 85Z" fill="url(#gold)" stroke="#85580b" stroke-width="4"/>
  <path d="M44 48 Q64 33 84 48" fill="none" stroke="#fff5b1" stroke-width="4" stroke-linecap="round" opacity=".65"/>
  <path d="M27 86 Q64 98 101 86" fill="none" stroke="#7c5007" stroke-width="6" stroke-linecap="round"/>
  <circle cx="64" cy="103" r="10" fill="#8c5a0a" stroke="#5e3a04" stroke-width="3"/>
  <ellipse cx="49" cy="53" rx="11" ry="8" fill="url(#shine)"/>
</g>

<!-- replay -->
<g transform="translate(384 0)">
  <path d="M95 43 C84 27 61 21 43 29 C26 37 18 56 24 75 C30 94 50 106 70 103 C84 101 97 92 104 79" fill="none" stroke="url(#blue)" stroke-width="13" stroke-linecap="round"/>
  <path d="M93 22 L113 45 L84 49Z" fill="url(#blue)" stroke="#164f8d" stroke-width="3"/>
  <circle cx="63" cy="65" r="17" fill="#f3fbff" stroke="#8bcfff" stroke-width="4"/>
  <circle cx="58" cy="59" r="6" fill="#fff" opacity=".9"/>
</g>

<!-- BAR / YU -->
<g transform="translate(512 0)">
  <rect x="16" y="31" width="96" height="67" rx="14" fill="url(#plum)" stroke="#c9a85f" stroke-width="5"/>
  <rect x="23" y="38" width="82" height="53" rx="10" fill="none" stroke="#7d466f" stroke-width="3" opacity=".75"/>
  <text x="64" y="65" text-anchor="middle" font-family="Arial Black,Arial,sans-serif" font-size="24" font-weight="900" fill="#f4d77f" letter-spacing="2">YU</text>
  <text x="64" y="85" text-anchor="middle" font-family="Arial,Helvetica,sans-serif" font-size="14" font-weight="800" fill="#f2e7d5" letter-spacing="3">BAR</text>
  <path d="M27 43 H92" stroke="#fff" stroke-width="2" opacity=".25"/>
</g>

<!-- YU emblem -->
<g transform="translate(640 0)">
  <path d="M64 15 C91 15 113 37 113 64 C113 91 91 113 64 113 C37 113 15 91 15 64 C15 37 37 15 64 15Z" fill="url(#green)" stroke="#14583a" stroke-width="5"/>
  <path d="M28 45 C40 24 69 18 91 33" fill="none" stroke="#c7f0d7" stroke-width="5" stroke-linecap="round" opacity=".55"/>
  <path d="M36 46 L54 67 L54 91 M36 46 L52 62 L68 46 M75 46 V76 Q75 91 88 91 Q101 91 101 76 V46" fill="none" stroke="#f2fff6" stroke-width="8" stroke-linecap="round" stroke-linejoin="round"/>
  <circle cx="42" cy="36" r="8" fill="url(#shine)"/>
</g>
</svg>